<mxfile host="app.diagrams.net" agent="Mozilla/5.0 (Macintosh; Intel Mac OS X 10_15_7) AppleWebKit/537.36 (KHTML, like Gecko) Chrome/135.0.0.0 Safari/537.36" version="26.2.13">
  <diagram name="Page-1" id="lH7OAkQszn0JQ-om_jvU">
    <mxGraphModel dx="1428" dy="681" grid="1" gridSize="10" guides="1" tooltips="1" connect="1" arrows="1" fold="1" page="1" pageScale="1" pageWidth="850" pageHeight="1100" math="0" shadow="0">
      <root>
        <mxCell id="0" />
        <mxCell id="1" parent="0" />
        <mxCell id="LMKS1fgw7sSPHGpPZrgB-2" value="Reasoning/ Agent Intention" style="text;html=1;align=center;verticalAlign=middle;resizable=0;points=[];autosize=1;strokeColor=#d79b00;fillColor=#ffe6cc;fontSize=13;" vertex="1" parent="1">
          <mxGeometry x="65" y="345" width="180" height="30" as="geometry" />
        </mxCell>
        <mxCell id="LMKS1fgw7sSPHGpPZrgB-28" style="edgeStyle=orthogonalEdgeStyle;rounded=0;orthogonalLoop=1;jettySize=auto;html=1;" edge="1" parent="1" source="LMKS1fgw7sSPHGpPZrgB-10" target="LMKS1fgw7sSPHGpPZrgB-14">
          <mxGeometry relative="1" as="geometry" />
        </mxCell>
        <mxCell id="LMKS1fgw7sSPHGpPZrgB-10" value="Search based path" style="text;html=1;align=center;verticalAlign=middle;resizable=0;points=[];autosize=1;strokeColor=#d6b656;fillColor=#fff2cc;fontSize=13;" vertex="1" parent="1">
          <mxGeometry x="95" y="130" width="130" height="30" as="geometry" />
        </mxCell>
        <mxCell id="LMKS1fgw7sSPHGpPZrgB-13" value="" style="edgeStyle=orthogonalEdgeStyle;rounded=0;orthogonalLoop=1;jettySize=auto;html=1;" edge="1" parent="1" source="LMKS1fgw7sSPHGpPZrgB-11" target="LMKS1fgw7sSPHGpPZrgB-12">
          <mxGeometry relative="1" as="geometry" />
        </mxCell>
        <mxCell id="LMKS1fgw7sSPHGpPZrgB-11" value="WorldModel.RobotState" style="text;html=1;align=center;verticalAlign=middle;resizable=0;points=[];autosize=1;strokeColor=#666666;fillColor=#f5f5f5;fontColor=#333333;fontSize=13;" vertex="1" parent="1">
          <mxGeometry x="80" y="550" width="160" height="30" as="geometry" />
        </mxCell>
        <mxCell id="LMKS1fgw7sSPHGpPZrgB-27" style="edgeStyle=orthogonalEdgeStyle;rounded=0;orthogonalLoop=1;jettySize=auto;html=1;entryX=0.5;entryY=1;entryDx=0;entryDy=0;" edge="1" parent="1" source="LMKS1fgw7sSPHGpPZrgB-12" target="LMKS1fgw7sSPHGpPZrgB-14">
          <mxGeometry relative="1" as="geometry" />
        </mxCell>
        <mxCell id="LMKS1fgw7sSPHGpPZrgB-12" value="Plan Init State" style="text;html=1;align=center;verticalAlign=middle;resizable=0;points=[];autosize=1;strokeColor=#666666;fillColor=#f5f5f5;fontColor=#333333;fontSize=13;" vertex="1" parent="1">
          <mxGeometry x="340" y="550" width="100" height="30" as="geometry" />
        </mxCell>
        <mxCell id="LMKS1fgw7sSPHGpPZrgB-19" value="" style="group;fillColor=#f8cecc;strokeColor=#b85450;container=0;" vertex="1" connectable="0" parent="1">
          <mxGeometry x="300" y="215" width="140" height="290" as="geometry" />
        </mxCell>
        <mxCell id="LMKS1fgw7sSPHGpPZrgB-21" value="Smoothed Path" style="whiteSpace=wrap;html=1;align=center;rounded=1;fillColor=#dae8fc;strokeColor=#6c8ebf;fontSize=14;" vertex="1" parent="1">
          <mxGeometry x="750" y="340" width="120" height="60" as="geometry" />
        </mxCell>
        <mxCell id="LMKS1fgw7sSPHGpPZrgB-22" value="" style="edgeStyle=orthogonalEdgeStyle;rounded=0;orthogonalLoop=1;jettySize=auto;html=1;" edge="1" parent="1" source="LMKS1fgw7sSPHGpPZrgB-14" target="LMKS1fgw7sSPHGpPZrgB-21">
          <mxGeometry relative="1" as="geometry" />
        </mxCell>
        <mxCell id="LMKS1fgw7sSPHGpPZrgB-24" value="" style="strokeWidth=2;html=1;shape=mxgraph.flowchart.annotation_2;align=left;labelPosition=right;pointerEvents=1;" vertex="1" parent="1">
          <mxGeometry x="240" y="220" width="60" height="290" as="geometry" />
        </mxCell>
        <mxCell id="LMKS1fgw7sSPHGpPZrgB-26" style="edgeStyle=orthogonalEdgeStyle;rounded=0;orthogonalLoop=1;jettySize=auto;html=1;entryX=0.467;entryY=0.867;entryDx=0;entryDy=0;entryPerimeter=0;" edge="1" parent="1" source="LMKS1fgw7sSPHGpPZrgB-2" target="LMKS1fgw7sSPHGpPZrgB-10">
          <mxGeometry relative="1" as="geometry">
            <Array as="points">
              <mxPoint x="150" y="350" />
              <mxPoint x="150" y="350" />
            </Array>
          </mxGeometry>
        </mxCell>
        <mxCell id="LMKS1fgw7sSPHGpPZrgB-29" style="edgeStyle=orthogonalEdgeStyle;rounded=0;orthogonalLoop=1;jettySize=auto;html=1;entryX=0;entryY=0.406;entryDx=0;entryDy=0;entryPerimeter=0;" edge="1" parent="1" target="LMKS1fgw7sSPHGpPZrgB-14">
          <mxGeometry relative="1" as="geometry">
            <mxPoint x="440" y="355" as="sourcePoint" />
          </mxGeometry>
        </mxCell>
        <mxCell id="LMKS1fgw7sSPHGpPZrgB-14" value="&lt;div style=&quot;text-align: center;&quot;&gt;&lt;font style=&quot;font-size: 14px;&quot;&gt;DDP Solver&lt;/font&gt;&lt;/div&gt;&lt;ul&gt;&lt;li&gt;&lt;span style=&quot;background-color: transparent; color: light-dark(rgb(0, 0, 0), rgb(255, 255, 255));&quot;&gt;&lt;font style=&quot;font-size: 14px;&quot;&gt;state constraints&lt;/font&gt;&lt;/span&gt;&lt;/li&gt;&lt;li&gt;&lt;font style=&quot;font-size: 14px;&quot;&gt;state efforts&lt;/font&gt;&lt;/li&gt;&lt;li&gt;&lt;font style=&quot;font-size: 14px;&quot;&gt;attraction&lt;/font&gt;&lt;/li&gt;&lt;li&gt;&lt;font style=&quot;font-size: 14px;&quot;&gt;warmstart&lt;/font&gt;&lt;/li&gt;&lt;/ul&gt;" style="rounded=1;whiteSpace=wrap;html=1;align=left;fillColor=#dae8fc;strokeColor=#6c8ebf;" vertex="1" parent="1">
          <mxGeometry x="550" y="290" width="150" height="160" as="geometry" />
        </mxCell>
        <mxCell id="LMKS1fgw7sSPHGpPZrgB-3" value="Nudge Corridor" style="rounded=1;whiteSpace=wrap;html=1;" vertex="1" parent="1">
          <mxGeometry x="310" y="225" width="120" height="60" as="geometry" />
        </mxCell>
        <mxCell id="LMKS1fgw7sSPHGpPZrgB-5" value="Boundary constraint" style="whiteSpace=wrap;html=1;rounded=1;" vertex="1" parent="1">
          <mxGeometry x="307.5" y="295" width="120" height="60" as="geometry" />
        </mxCell>
        <mxCell id="LMKS1fgw7sSPHGpPZrgB-7" value="Speed profile" style="whiteSpace=wrap;html=1;rounded=1;" vertex="1" parent="1">
          <mxGeometry x="310" y="365" width="120" height="60" as="geometry" />
        </mxCell>
        <mxCell id="LMKS1fgw7sSPHGpPZrgB-8" value="Other Info such as behavior type" style="whiteSpace=wrap;html=1;rounded=1;" vertex="1" parent="1">
          <mxGeometry x="307.5" y="435" width="120" height="60" as="geometry" />
        </mxCell>
      </root>
    </mxGraphModel>
  </diagram>
</mxfile>
